<svg xmlns="http://www.w3.org/2000/svg" width="276.577" height="57.867" viewBox="0 0 276.577 57.867">
  <g id="Group_590" data-name="Group 590" transform="translate(-241.157 -53.161)">
    <g id="Group_588" data-name="Group 588">
      <path id="Path_174" data-name="Path 174" d="M355.476,69.416h-3.817V94.782h14.6V91.066H355.476Z" fill="#fff"/>
      <path id="Path_175" data-name="Path 175" d="M374.717,94.782h16.4V91.066H378.536V83.959h9.889V80.242h-9.889V73.131h12.582V69.416h-16.4Z" fill="#fff"/>
      <path id="Path_176" data-name="Path 176" d="M416.726,87.4l-14.5-17.984h-2.674V94.782h3.818V76.8l14.344,17.8.153.188h2.676V69.416h-3.817Z" fill="#fff"/>
      <path id="Path_177" data-name="Path 177" d="M449.664,73.131h7.166V94.782h3.818V73.131h7.022V69.416H449.664Z" fill="#fff"/>
      <path id="Path_178" data-name="Path 178" d="M482.232,69.416H479.7L468.761,94.782h3.973l2.816-6.512h10.834l2.818,6.512h3.972l-10.81-25.058Zm-5.074,15.138,3.807-8.8,3.81,8.8Z" fill="#fff"/>
      <path id="Path_179" data-name="Path 179" d="M509.948,84.46a7.573,7.573,0,0,0-1.259-15.041h-6.734v0h-3.819V94.783h3.819V84.567h3.4l.61.808,7.1,9.408h4.675Zm-7.993-11.33h6.734a3.863,3.863,0,1,1,0,7.726h-6.734Z" fill="#fff"/>
      <path id="Path_180" data-name="Path 180" d="M334.628,84.577h4.649v4.388A9.142,9.142,0,0,1,333,91.4a9,9,0,0,1-9.1-9.305c0-5.305,3.826-9.305,8.9-9.305a8.872,8.872,0,0,1,6.506,2.769l.634.7,2.655-2.65-.577-.635a12.418,12.418,0,0,0-9.218-3.9c-7.25,0-12.717,5.6-12.717,13.02A12.86,12.86,0,0,0,342.9,90.4l.191-.243V80.861H330.907Z" fill="#fff"/>
      <path id="Path_181" data-name="Path 181" d="M437.633,80.343c-4.995-1.811-5.14-3.278-5.2-3.9a3.017,3.017,0,0,1,.685-2.22,4.862,4.862,0,0,1,3.375-1.46,9.308,9.308,0,0,1,5.5,1.319l2.347-2.945a13.222,13.222,0,0,0-8.209-2.054,8.452,8.452,0,0,0-5.971,2.808,6.662,6.662,0,0,0-1.521,4.9c.3,3.081,2.593,5.18,7.664,7.018s5.221,3.3,5.284,3.935a3.021,3.021,0,0,1-.685,2.22,4.863,4.863,0,0,1-3.376,1.46,10,10,0,0,1-7.276-2.6l-2.338,2.936a13.941,13.941,0,0,0,8.837,3.4c.377,0,.76-.018,1.138-.052a8.456,8.456,0,0,0,5.971-2.809,6.663,6.663,0,0,0,1.521-4.9C445.075,84.295,442.758,82.187,437.633,80.343Z" fill="#fff"/>
    </g>
    <g id="Group_589" data-name="Group 589">
      <path id="Path_182" data-name="Path 182" d="M268.9,55.4l-2.068-2.068c-.344.039-.685.082-1.025.133l2.96,2.96C268.818,56.086,268.861,55.745,268.9,55.4Z" fill="#fff"/>
      <path id="Path_183" data-name="Path 183" d="M265.57,65.984l-9.32-9.32c-.249.136-.495.277-.739.419l9.64,9.64C265.293,66.479,265.434,66.233,265.57,65.984Z" fill="#fff"/>
      <path id="Path_184" data-name="Path 184" d="M269,54.343c.029-.392.055-.786.069-1.182-.4.014-.79.04-1.182.07Z" fill="#fff"/>
      <path id="Path_185" data-name="Path 185" d="M264.718,67.452l-9.936-9.936c-.236.147-.468.3-.7.458l10.179,10.178C264.415,67.92,264.571,67.689,264.718,67.452Z" fill="#fff"/>
      <path id="Path_186" data-name="Path 186" d="M268.607,57.426l-3.8-3.8c-.323.059-.642.128-.96.2l4.562,4.562C268.479,58.068,268.547,57.749,268.607,57.426Z" fill="#fff"/>
      <path id="Path_187" data-name="Path 187" d="M267.666,61.123l-6.556-6.556c-.289.095-.574.2-.859.3l7.116,7.116C267.47,61.7,267.572,61.412,267.666,61.123Z" fill="#fff"/>
      <path id="Path_188" data-name="Path 188" d="M267.051,62.827l-7.644-7.645q-.413.165-.819.34l8.124,8.123Q266.888,63.24,267.051,62.827Z" fill="#fff"/>
      <path id="Path_189" data-name="Path 189" d="M266.348,64.443l-8.557-8.557c-.262.123-.524.246-.782.377l8.962,8.962C266.1,64.967,266.225,64.705,266.348,64.443Z" fill="#fff"/>
      <path id="Path_190" data-name="Path 190" d="M268.184,59.323l-5.273-5.274c-.306.078-.611.157-.913.245l5.942,5.942C268.027,59.934,268.106,59.629,268.184,59.323Z" fill="#fff"/>
      <path id="Path_191" data-name="Path 191" d="M262.794,70.164,252.07,59.441c-.215.171-.429.342-.639.519L262.275,70.8C262.452,70.594,262.623,70.379,262.794,70.164Z" fill="#fff"/>
      <path id="Path_192" data-name="Path 192" d="M261.734,71.424,250.811,60.5c-.2.182-.4.368-.6.556l10.97,10.97C261.366,71.827,261.552,71.627,261.734,71.424Z" fill="#fff"/>
      <path id="Path_193" data-name="Path 193" d="M263.789,68.841l-10.4-10.4c-.226.16-.451.32-.672.486L263.3,69.513C263.469,69.293,263.629,69.067,263.789,68.841Z" fill="#fff"/>
      <path id="Path_194" data-name="Path 194" d="M243.4,83.285l-2.068,2.068q.059.515.133,1.025l2.961-2.961Q243.913,83.342,243.4,83.285Z" fill="#fff"/>
      <path id="Path_195" data-name="Path 195" d="M253.981,86.615l-9.32,9.32c.135.249.276.5.419.739l9.64-9.64C254.475,86.891,254.23,86.751,253.981,86.615Z" fill="#fff"/>
      <path id="Path_196" data-name="Path 196" d="M241.157,83.112c.014.4.04.79.07,1.183l1.112-1.113C241.947,83.153,241.554,83.126,241.157,83.112Z" fill="#fff"/>
      <path id="Path_197" data-name="Path 197" d="M255.448,87.466,245.512,97.4c.148.237.3.468.458.7l10.178-10.179C255.916,87.77,255.685,87.614,255.448,87.466Z" fill="#fff"/>
      <path id="Path_198" data-name="Path 198" d="M245.423,83.578l-3.8,3.8c.059.322.128.641.2.96l4.562-4.562C246.064,83.706,245.745,83.637,245.423,83.578Z" fill="#fff"/>
      <path id="Path_199" data-name="Path 199" d="M249.119,84.519l-6.555,6.555c.094.289.2.575.3.859l7.117-7.116C249.694,84.714,249.409,84.613,249.119,84.519Z" fill="#fff"/>
      <path id="Path_200" data-name="Path 200" d="M250.823,85.133l-7.644,7.645q.163.413.339.818l8.124-8.123Q251.236,85.3,250.823,85.133Z" fill="#fff"/>
      <path id="Path_201" data-name="Path 201" d="M252.439,85.836l-8.557,8.557c.123.263.246.525.377.783l8.962-8.962C252.964,86.083,252.7,85.96,252.439,85.836Z" fill="#fff"/>
      <path id="Path_202" data-name="Path 202" d="M247.319,84l-5.274,5.274c.078.306.158.611.245.913l5.942-5.942C247.93,84.158,247.625,84.078,247.319,84Z" fill="#fff"/>
      <path id="Path_203" data-name="Path 203" d="M258.161,89.391l-10.724,10.724c.171.215.342.429.519.639L258.8,89.91C258.59,89.733,258.375,89.562,258.161,89.391Z" fill="#fff"/>
      <path id="Path_204" data-name="Path 204" d="M259.42,90.45,248.5,101.374c.182.2.368.4.556.6l10.97-10.97C259.824,90.818,259.624,90.632,259.42,90.45Z" fill="#fff"/>
      <path id="Path_205" data-name="Path 205" d="M256.837,88.4l-10.4,10.395c.159.226.319.452.485.673L257.51,88.881C257.289,88.715,257.063,88.555,256.837,88.4Z" fill="#fff"/>
      <path id="Path_206" data-name="Path 206" d="M271.331,108.788l2.068,2.068c.344-.039.686-.082,1.025-.133l-2.96-2.96C271.413,108.1,271.37,108.445,271.331,108.788Z" fill="#fff"/>
      <path id="Path_207" data-name="Path 207" d="M274.662,98.205l9.32,9.32c.249-.136.494-.277.739-.419l-9.64-9.64C274.938,97.71,274.8,97.956,274.662,98.205Z" fill="#fff"/>
      <path id="Path_208" data-name="Path 208" d="M271.159,111.028c.4-.013.79-.04,1.182-.069l-1.112-1.113C271.2,110.239,271.173,110.632,271.159,111.028Z" fill="#fff"/>
      <path id="Path_209" data-name="Path 209" d="M275.513,96.737l9.936,9.936c.237-.147.468-.3.7-.457L275.971,96.037C275.816,96.269,275.661,96.5,275.513,96.737Z" fill="#fff"/>
      <path id="Path_210" data-name="Path 210" d="M271.624,106.763l3.8,3.8c.323-.06.642-.128.96-.2l-4.562-4.562C271.753,106.121,271.684,106.44,271.624,106.763Z" fill="#fff"/>
      <path id="Path_211" data-name="Path 211" d="M272.565,103.066l6.556,6.556c.289-.094.574-.2.859-.3l-7.116-7.116C272.761,102.492,272.659,102.777,272.565,103.066Z" fill="#fff"/>
      <path id="Path_212" data-name="Path 212" d="M273.18,101.362l7.644,7.645c.275-.109.548-.223.819-.34l-8.123-8.123C273.4,100.815,273.289,101.087,273.18,101.362Z" fill="#fff"/>
      <path id="Path_213" data-name="Path 213" d="M273.883,99.747l8.557,8.557c.262-.124.525-.247.783-.378l-8.963-8.962C274.129,99.222,274.006,99.484,273.883,99.747Z" fill="#fff"/>
      <path id="Path_214" data-name="Path 214" d="M272.047,104.866l5.274,5.274c.3-.078.611-.157.913-.245l-5.942-5.942C272.2,104.255,272.125,104.561,272.047,104.866Z" fill="#fff"/>
      <path id="Path_215" data-name="Path 215" d="M277.437,94.025l10.724,10.724c.215-.171.43-.342.639-.519L277.956,93.386C277.779,93.6,277.608,93.81,277.437,94.025Z" fill="#fff"/>
      <path id="Path_216" data-name="Path 216" d="M278.5,92.766l10.924,10.923c.2-.182.4-.368.6-.556l-10.97-10.97C278.865,92.362,278.679,92.562,278.5,92.766Z" fill="#fff"/>
      <path id="Path_217" data-name="Path 217" d="M276.442,95.348l10.4,10.4c.226-.16.452-.32.673-.486L276.928,94.676C276.762,94.9,276.6,95.122,276.442,95.348Z" fill="#fff"/>
      <path id="Path_218" data-name="Path 218" d="M249.612,102.565a28.868,28.868,0,0,0,19.457,8.459,28.861,28.861,0,0,0-8.46-19.455Z" fill="#fff"/>
      <path id="Path_219" data-name="Path 219" d="M249.616,61.619a28.869,28.869,0,0,0-8.459,19.456,28.865,28.865,0,0,0,19.456-8.459Z" fill="#fff"/>
      <path id="Path_220" data-name="Path 220" d="M299.074,83.113V82.1h-1.108l1.023,1.023c-.366.014-.73.038-1.093.065L296.808,82.1h-1.161l1.191,1.19q-.516.058-1.025.133L294.489,82.1h-1.161l1.484,1.483c-.322.06-.641.129-.96.2L292.171,82.1h-1.162L292.916,84c-.306.078-.612.157-.913.245L289.851,82.1h-1.16l2.424,2.424c-.289.094-.574.2-.859.3L287.533,82.1h-1.161l3.04,3.039q-.412.163-.819.339L285.214,82.1h-1.16l3.742,3.742c-.262.123-.524.246-.782.376L282.9,82.1h-1.161l4.52,4.52c-.249.136-.495.277-.74.419l-4.94-4.939h-1.161l5.372,5.372c-.236.147-.468.3-.7.457l-5.83-5.829H277.1l6.3,6.3c-.226.16-.451.32-.672.485L275.938,82.1h-1.161l7.3,7.3c-.215.171-.43.342-.639.519L273.619,82.1h-1.161l8.356,8.355c-.2.183-.4.369-.6.556L271.3,82.1H270.14l20.475,20.475a28.866,28.866,0,0,0,8.46-19.457Z" fill="#fff"/>
      <path id="Path_221" data-name="Path 221" d="M290.622,61.624a28.872,28.872,0,0,0-19.457-8.459,28.866,28.866,0,0,0,8.46,19.456Z" fill="#fff"/>
    </g>
  </g>
</svg>
