<svg xmlns="http://www.w3.org/2000/svg" width="1141.679" height="236.926" viewBox="0 0 1141.679 236.926">
  <g id="Group_593" data-name="Group 593" transform="translate(-394 -212)">
    <g id="Group_592" data-name="Group 592" transform="translate(-0.813 0.984)">
      <path id="Path_222" data-name="Path 222" d="M473.653,446.013l-18.469-71.26h-.276l-18.47,71.26H423.344l-28.531-102h15.438l19.434,76.773h.276l19.71-76.773h10.888l19.435,76.222h.275l19.848-76.222h15.162l-28.531,102Z" fill="#fff"/>
      <path id="Path_223" data-name="Path 223" d="M557.6,447.942c-25.636,0-41.212-21.364-41.212-40.66,0-20.813,17.505-39.7,41.212-39.7,23.157,0,41.212,18.194,41.212,39.972C598.808,426.165,583.509,447.942,557.6,447.942Zm0-67.262c-16.126,0-26.877,13.37-26.877,27.015,0,13.783,10.889,27.153,26.877,27.153,15.438,0,26.878-12.818,26.878-27.29C584.474,394.05,573.723,380.68,557.6,380.68Z" fill="#fff"/>
      <path id="Path_224" data-name="Path 224" d="M613.419,446.013v-76.36h13.37v6.892h.275c6.065-8.546,15.851-8.821,19.435-8.959v14.748a26.936,26.936,0,0,0-10.338,2.757c-4.548,2.481-8.407,8.27-8.407,19.158v41.764Z" fill="#fff"/>
      <path id="Path_225" data-name="Path 225" d="M720.376,369.653l-27.7,35.975,32.114,40.385H706.868l-30.6-39.559h-.275v39.559H661.659v-102h14.335v62.438h.275l27.154-36.8Z" fill="#fff"/>
      <path id="Path_226" data-name="Path 226" d="M774.131,446.013V382.747h-6.754V369.653h6.754v-3.721c0-8.132,3.169-13.784,9.1-17.781,6.2-3.721,10.2-4.135,18.608-4.135v13.1c-9.51,0-13.37,3.446-13.37,8.821v3.721h13.37v13.094h-13.37v63.266Z" fill="#fff"/>
      <path id="Path_227" data-name="Path 227" d="M811.9,446.013v-76.36h13.37v6.892h.276c6.064-8.546,15.85-8.821,19.434-8.959v14.748a26.94,26.94,0,0,0-10.338,2.757c-4.548,2.481-8.407,8.27-8.407,19.158v41.764Z" fill="#fff"/>
      <path id="Path_228" data-name="Path 228" d="M890.463,447.942c-25.638,0-41.212-21.364-41.212-40.66,0-20.813,17.5-39.7,41.212-39.7,23.155,0,41.211,18.194,41.211,39.972C931.674,426.165,916.375,447.942,890.463,447.942Zm0-67.262c-16.127,0-26.878,13.37-26.878,27.015,0,13.783,10.888,27.153,26.878,27.153,15.436,0,26.876-12.818,26.876-27.29C917.339,394.05,906.589,380.68,890.463,380.68Z" fill="#fff"/>
      <path id="Path_229" data-name="Path 229" d="M1047.454,446.013V403.56c0-6.478-.826-22.88-18.056-22.88-18.332,0-18.056,16.4-18.194,22.742v42.591H996.87V403.56c.137-6.34-.138-10.613-3.17-15.713-3.584-5.513-8.96-7.167-14.2-7.167-18.883,0-18.883,17.091-18.883,22.742v42.591H946.285v-76.36h13.232v8.27h.276c2.756-3.17,7.718-10.337,21.915-10.337,9.235,0,19.848,4.41,23.708,12.818,2.48-3.859,8.132-12.818,25.222-12.818,12.819,0,21.916,5.238,26.878,13.783,2.756,4.962,4.273,11.165,4.273,18.607v46.037Z" fill="#fff"/>
      <path id="Path_230" data-name="Path 230" d="M1171.643,446.013V404.525c0-5.927,0-23.845-19.02-23.845-11.992,0-20.124,8.408-20.124,23.707v41.626h-14.334v-102H1132.5v33.77h.275c6.892-10.2,18.332-10.2,21.364-10.2,11.854,0,21.5,5.1,27.016,13.645,3.032,4.962,4.686,11.027,4.824,19.573v45.209Z" fill="#fff"/>
      <path id="Path_231" data-name="Path 231" d="M1241.25,447.942c-25.637,0-41.212-21.364-41.212-40.66,0-20.813,17.505-39.7,41.212-39.7,23.156,0,41.212,18.194,41.212,39.972C1282.462,426.165,1267.163,447.942,1241.25,447.942Zm0-67.262c-16.126,0-26.877,13.37-26.877,27.015,0,13.783,10.888,27.153,26.877,27.153,15.437,0,26.878-12.818,26.878-27.29C1268.128,394.05,1257.377,380.68,1241.25,380.68Z" fill="#fff"/>
      <path id="Path_232" data-name="Path 232" d="M1398.242,446.013V403.56c0-6.478-.827-22.88-18.057-22.88-18.331,0-18.055,16.4-18.193,22.742v42.591h-14.335V403.56c.138-6.34-.138-10.613-3.17-15.713-3.584-5.513-8.959-7.167-14.2-7.167-18.884,0-18.884,17.091-18.884,22.742v42.591h-14.334v-76.36H1310.3v8.27h.276c2.757-3.17,7.718-10.337,21.916-10.337,9.234,0,19.847,4.41,23.707,12.818,2.481-3.859,8.132-12.818,25.223-12.818,12.819,0,21.915,5.238,26.877,13.783,2.757,4.962,4.274,11.165,4.274,18.607v46.037Z" fill="#fff"/>
      <path id="Path_233" data-name="Path 233" d="M1441.385,414.036c3.584,14.748,15.438,20.812,25.085,20.812a24.413,24.413,0,0,0,21.779-12.818h14.334a38.918,38.918,0,0,1-36.663,25.912c-21.64,0-38.87-18.607-38.87-40.247,0-22.88,17.643-40.109,39.145-40.109a39.144,39.144,0,0,1,38.869,39.144c0,2.481-.275,6.341-.414,7.306Zm49.344-11.027c-.688-11.165-10.889-22.329-24.672-22.329s-23.982,11.164-24.672,22.329Z" fill="#fff"/>
      <path id="Path_234" data-name="Path 234" d="M1522.157,446.013V429.2h14.335v16.816Z" fill="#fff"/>
    </g>
    <g id="Group_586" data-name="Group 586" transform="translate(0.26 1.697)">
      <g id="Group_583" data-name="Group 583">
        <path id="Path_165" data-name="Path 165" d="M1083.063,389.318c1.18.108,2.406.148,3.531.336,2.706.451,7.466-.046,6.18,2.381-.037.069.426.2.625.313,4.011,2.257,3.107,3.468-2.9,3.881-.64.044-1.3.061-1.948.089-12.8.541-25.764.816-38.356,1.689-15.459,1.072-30.666,2.565-45.874,4.02-18.281,1.748-36.452,3.64-54.659,5.486-5.2.526-10.623.871-15.446,1.724-5.772,1.022-11.387,1.968-18.1,1.561a11.437,11.437,0,0,0-2.165.188c-8.917,1.192-17.776,2.445-26.752,3.572-10.547,1.325-21.222,2.51-31.79,3.812q-20.826,2.568-41.566,5.229-20.9,2.689-41.681,5.5a37,37,0,0,1-20.21-2.513,1.906,1.906,0,0,0-.255-.1c-4.507-1.255-5.175-3.3-6.729-5.156-.882-1.052,1.089-1.647,1.636-2.427,1.219-1.739,4.341-2.12,7.511-2.554,4.78-.654,9.732-1.128,14.58-1.712,16.289-1.964,32.462-4.066,48.879-5.876,12.56-1.385,25.518-2.291,38.128-3.622,18.212-1.922,36.166-4.165,54.417-6.036,23.3-2.389,46.78-4.55,70.189-6.8,13.339-1.282,26.6-2.686,40.075-3.763,7.917-.633,16.351-.5,24.269-1.136,8.855-.707,17.648-1.461,26.774-1.687,6.17-.153,12.33-.266,17.2,2.127l-5.887,1.016ZM830.858,412.96q10.866-1.03,21.714-2.088c8.432-.813,16.93-1.547,25.28-2.46,7.272-.795,14.284-1.906,21.577-2.671,13.1-1.373,26.328-2.582,39.488-3.878,17.087-1.683,34.14-3.409,51.246-5.067,9.231-.894,18.6-1.614,27.8-2.543,10.232-1.034,20.529-1.876,31.181-2.306,9.807-.4,19.381-1.294,29.022-2.025a7.365,7.365,0,0,0,2.2-.812,16.747,16.747,0,0,0-3.115-.485c-7.326.364-14.614.8-21.908,1.223-9.676.561-19.44.991-29,1.729-13.3,1.027-26.532,2.164-39.6,3.494-7.67.781-14.9,2.107-22.465,3.035-4.495.552-9.312.738-13.886,1.211-6.442.667-12.782,1.46-19.188,2.172-3.317.369-6.705.653-10.021,1.023-15.636,1.745-31.232,3.537-46.9,5.246-6.963.759-14.08,1.332-21.086,2.041-8.153.825-16.263,1.7-24.381,2.571a7.382,7.382,0,0,0-1.248.335l.278.412C828.852,413.067,829.884,413.052,830.858,412.96Zm45.675-8.18.552.473c3.824-.858,8.668-.875,12.12-2.039l-.472-.388Z" fill="#313133"/>
      </g>
      <g id="Group_585" data-name="Group 585">
        <path id="Path_166" data-name="Path 166" d="M872.583,229.665a9.375,9.375,0,0,1,.286,1.956c-.275,4.379-.615,8.754-.91,13.132-.06.894.028,1.8-.041,2.693a1.753,1.753,0,0,1-.77,1.308l.726-19.035Z" fill="#313133"/>
        <path id="Path_167" data-name="Path 167" d="M873.5,260.094q.638-3.238,1.274-6.478l.465.083c-.489,2.149-.112,4.455-1.024,6.528Z" fill="#313133"/>
        <g id="Group_584" data-name="Group 584">
          <path id="Path_168" data-name="Path 168" d="M896.091,301.273c-.756,1.487-1.613,2.983-2.3,4.555-1.42,3.26-2.682,6.577-2.651,10.22.022,2.593.505,3.2,2.974,3.974,5.353,1.68,10.435.671,15.221-1.825,4.359-2.275,8.623-4.761,12.767-7.408,2.333-1.49,4.233-3.648,6.534-5.2,1.1-.745,2.137-2.231,3.972-1.618l-6.085,4.772a2.172,2.172,0,0,0,2.765-.562c.221-.2.335-.691.533-.712,1.81-.19,2.5-1.513,3.17-2.923.1-.213.581-.234.87-.377a4.766,4.766,0,0,0,.576-.393l-.682-.341c1.063-1.681,4.007-1.592,4.053-4.461l-2.33,1.589c0-.22-.038-.359,0-.38,2.241-1.328,3.157-3.391,3.759-5.869,2.767-11.389,9.184-20.632,17.415-28.721,2.438-2.4,5.715-3.013,8.948-3.652,4.175-.825,8.19-.607,11.62,2.131a51.047,51.047,0,0,1,4.747,4.894c.589-1.472,1.249-3.376,2.122-5.178a4.223,4.223,0,0,1,1.748-1.547,17.071,17.071,0,0,1,1.968-.565c1.289-.528,1.481.025,1.155,1.38l1.205-.559a20.292,20.292,0,0,0,2.372.648c2.383.326,3.811,2.285,3.485,5.189a16.683,16.683,0,0,1-1.074,4.129,232.46,232.46,0,0,0-9.472,30.61c-1.131,4.755-.94,9.591-.773,14.412.074,2.155,1.181,2.76,3.055,1.361,3.43-2.559,6.7-5.356,9.893-8.206a26.885,26.885,0,0,0,4.921-6.39,22.355,22.355,0,0,1,2.45-2.567,6.149,6.149,0,0,0,.689-1.565l.762.183-.191-1.515L1008,300.1a7.519,7.519,0,0,0,2.138-4.758l.6.654q.641-1.608,1.279-3.215l-.456-.275-1.2.982c-.031-.086-.106-.233-.084-.249,2.785-2.09,2.062-5.338,2.536-8.112,1.355-7.929,2.477-15.9,3.652-23.855.136-.92-.063-1.891.077-2.81.064-.418.534-1.052.891-1.1,6.074-.9,11.435,1.462,10.941,8.786-.4,5.928-1.569,11.8-2.361,17.445a7.918,7.918,0,0,1,.592-1.242,6.322,6.322,0,0,1,.96-.969,13.243,13.243,0,0,1,.29,1.54c.014.18-.223.38-.346.571l.539.262c.521-1.32,1.042-2.641,1.724-4.373l-2.167,1.657-.4-.379c1.5-1.97,3.062-3.9,4.481-5.921,1.587-2.266,2.917-4.721,4.591-6.916a42.922,42.922,0,0,1,5.594-6.309,96.415,96.415,0,0,1,10.145-7.88c3.055-2.032,8.8.8,9.537,4.452a3.224,3.224,0,0,1-.468,1.772c-3.17,6.721-5.989,13.563-7.376,20.911-.244,1.3-.429,2.6-.638,3.883a4.121,4.121,0,0,1-4.589-2.547,18.509,18.509,0,0,1-.846-11.232c.16-.778.228-1.575.338-2.363l-.513-.283-3.935,3.754a7.158,7.158,0,0,1-.863,1.758,79.346,79.346,0,0,0-11.306,18.875c-1.749,3.9-3.51,7.8-5.009,11.8-2.448,6.53-4.806,13.1-6.965,19.728-1.193,3.662-1.836,7.5-2.862,11.22-.547,1.983-1.548,2.83-2.838,2.286a15.912,15.912,0,0,1-3.775-2.67,9.135,9.135,0,0,1-1.316-1.989c-.237.567-.355.848-.322.771-.61-1.081-1.319-2.271-1.951-3.5a2.082,2.082,0,0,1-.163-1.2c.731-4.482,1.522-8.954,2.242-13.438.491-3.059.9-6.131,1.374-9.419-2.562,3.616-5.162,6.9-7.328,10.453a27.031,27.031,0,0,1-8.464,8.71,8.121,8.121,0,0,1-8.618.545c-1.993-1.091-4.074-1.983-5.441-3.992a28.441,28.441,0,0,0-2.592-2.467c-4.027-4.505-4.547-9.976-4.22-15.667.021-.368.011-.737.018-1.345-.3.3-.5.42-.591.6-2.69,5.308-6.6,9.735-10.289,14.328-1.728,2.153-3.347,4.4-5.2,6.442a13.291,13.291,0,0,1-4.038,3.249c-4.877,2.223-7.855.845-11.451-3.756-.535-.685-1.37-1.129-1.953-1.785a5.568,5.568,0,0,1-1.477-2.18c-.636-2.989-1.079-6.02-1.575-9.039-.085-.519-.073-1.054-.129-1.945-.526.593-.886.988-1.233,1.394-5.354,6.273-10.993,12.248-17.83,16.959-3.029,2.087-6.218,3.953-9.888,4.541-7.789,1.249-14.139-1.187-18.5-7.943-2.347-3.632-3.512-7.677-4.528-11.921-1.9-7.958,1.484-14.417,4.726-21.029,3.843-7.839,9.652-14.068,16.47-19.356,2.52-1.954,5.192-3.867,8.656-4.01a14.1,14.1,0,0,1,10.447,3.788c2.917,2.726,3.888,6.385,3.157,10.481-.875,4.9-3.916,8.465-6.913,12.133-3.51,4.3-8.019,7.2-12.858,9.689a17.47,17.47,0,0,1-4.573,1.953,5.868,5.868,0,0,1-6.18-2.712,7.35,7.35,0,0,0-.717-.842C896.6,301.4,896.472,301.4,896.091,301.273Zm74.581-7.493-.447-.207c.44-.815.832-1.66,1.328-2.44,2.571-4.037,4-8.572,5.693-12.992a1.6,1.6,0,0,0,.056-.784,45.866,45.866,0,0,0-.965-5.622c-1-3.454-3.561-4.081-6.236-1.732-6.208,5.451-10.73,12.231-15.086,19.131a48.389,48.389,0,0,0-5.266,12.49A57.372,57.372,0,0,0,947.4,313.9a43.73,43.73,0,0,0,.307,5.561l.462.161a70.13,70.13,0,0,0,8.963-9.534c2.772-3.48,5.385-7.1,7.894-10.772,2.438-3.569,4.657-7.288,6.972-10.941l.235.142-4.456,8.4,1.007-.641.28.236-2.541,4.321-.426-.681c-.153.491-.262.983-.455,1.439-1.579,3.738-4.326,6.625-6.957,9.609-1.395,1.582-2.634,3.3-3.943,4.96,5.887-5.82,11.352-11.967,15.606-19.1.16.228.2.357.156.424q-5.23,7.491-10.471,14.975c-.415.6-.758,1.242-1.134,1.864l.453.386a4.7,4.7,0,0,0,1.135-.757c2.529-3.062,5.193-6.033,7.48-9.268a57.033,57.033,0,0,0,6.229-10.287c1.748-4.106,2.645-8.579,3.844-12.91a8.221,8.221,0,0,0,.012-2.173l-.58-.108c.03,2.874-1.713,4.966-2.915,7.294C973.294,288.946,971.969,291.356,970.672,293.78Zm56.139-2.847.452.141a14.883,14.883,0,0,1-2.044,5.962c-.142.26-.874.2-1.143.251l-2.5,11.736c2.316-3.244,3.317-6.993,5.013-10.436,2.864-5.815,5.573-11.709,8.547-17.467a53.836,53.836,0,0,1,4.3-6.261c1.4-1.965,2.838-3.9,4.259-5.849l-.622-.462-6.292,7.969-.287-.207c1.02-1.622,2.039-3.244,3.107-4.945l-2.074,1.143-.34-.41q2.148-2.905,4.3-5.81a28.182,28.182,0,0,0-4.352,4.473c-2.808,3.749-5.881,7.328-7.7,11.743-.833,2.021-1.859,3.962-2.828,5.925-.77,1.559-1.671,3.059-2.345,4.656a11.792,11.792,0,0,0-.471,2.711l.485.115Q1025.547,293.423,1026.811,290.933ZM918.888,279.222a11.378,11.378,0,0,0-8.149,3.391c-3.629,3.7-7.043,7.624-10.509,11.487a17.458,17.458,0,0,0-1.477,2.285C903.528,296.8,917.118,285.053,918.888,279.222Zm92.377,38.012c1.669-2.2,1.778-4.456,2.189-6.581.431-2.23.621-4.505.955-6.756.341-2.3.782-4.59,1.081-6.9.278-2.152.426-4.321.631-6.483l-.382-.027C1014.271,299.262,1012.8,308.035,1011.265,317.234ZM975.4,311.826c.078-.623.114-.822.126-1.023.319-5.214.778-10.4,2.654-15.35a4.987,4.987,0,0,0-.08-1.656C974.959,297.556,973.525,307,975.4,311.826Zm-51.866-33.5-.508-.41c-.175.254-.359.5-.524.763-.944,1.5-1.8,3.059-2.855,4.472-.655.878-1.926,1.381-2.37,2.315-1.172,2.463-3.2,4.106-5.029,5.963a8.6,8.6,0,0,0-.794,1.107l.461.312C916.352,288.449,921.671,284.76,923.538,278.322Zm15.724,36.845c.5-4.107.984-8.062,1.46-11.964C938.26,305.48,937.391,311.927,939.262,315.167Zm1.984-17.74.419.343c.37-.4.885-.741,1.087-1.215,1.38-3.242,2.7-6.509,4.023-9.774a11.672,11.672,0,0,0,.346-1.179A32.413,32.413,0,0,0,941.246,297.427Zm64.641,6.219c1.213.137,1.213.137.3-3.127C1006.094,301.522,1006,302.525,1005.887,303.646Z" fill="#313133"/>
          <path id="Path_169" data-name="Path 169" d="M855.015,315.331c-.563,2.013-1.01,4.068-1.719,6.029-.784,2.164-1.8,4.244-2.733,6.355-.281.638-.607,1.257-.926,1.913,1.988-.122,2.244-1.82,2.967-3.07A123.217,123.217,0,0,0,862,305.739c2.11-5.985,3.89-12.086,5.823-18.134.144-.45.35-.88.559-1.4l.428.62c.071-.105.163-.177.168-.254a30.472,30.472,0,0,1,.376-5.214,45.227,45.227,0,0,1,2.083-5.241,7.69,7.69,0,0,0,.468-2.158c.111-1.513.122-3.033.173-4.55l.666.044a58,58,0,0,1-.711,6.271c-1.145,5.218-2.333,10.436-3.786,15.574-.807,2.853-2.248,5.521-3.28,8.317-1.3,3.523-2.354,7.141-3.734,10.63-1.966,4.969-3.932,9.957-6.282,14.749-1.692,3.451-4.012,6.593-6.045,9.878-.386.623-.735,1.269-1.1,1.9l.361.242,2.4-3.77.209.092-1.143,2.99.213.2a8.406,8.406,0,0,0,.884-.674,31.863,31.863,0,0,0,6.107-9.052,247.789,247.789,0,0,0,11.616-29.7,8.4,8.4,0,0,1,1.374-2.707q-2.027,6.443-4.054,12.885c6.495-14.969,10.474-30.642,13.312-46.69l.352,1.553.271.066c.219-1.016.512-2.023.639-3.051.19-1.54.2-3.1.4-4.642a7.851,7.851,0,0,0-.431-4.173c-.3-.747.364-1.9.637-2.863.081-.286.428-.523.449-.8a75.054,75.054,0,0,0,.295-9.51l-.172.52-.877-14.047-.711,0c.5,14.107-1.147,28.019-3.727,41.842.266-1.991.543-3.979.8-5.971,1.44-11.31,3-22.624,1.835-34.061a49.186,49.186,0,0,0-1.756-7.886c-.2-.72-.994-1.275-1.776-1.767,2.4,6.1,1.553,12.257,1.367,18.381l-.4.026-.63-10.075-.244-.024-.185.944-2.491-10.531-.592.135c.411,1.673.882,3.334,1.214,5.022s.527,3.4.782,5.1l-.527.131-1.728-5.873-.257.041,1.185,9.481-.7.181c-.387-5.829-2.878-10.883-5-16.072l-.629-.118c.873-.7,1.644-1.728,2.638-2.032,2.639-.809,9.572.7,10.878,4.353a48.3,48.3,0,0,1,2.552,8.816c1.549,10.111.6,20.193-.714,30.268-.609,4.668-.744,9.4-1.221,14.084a42.853,42.853,0,0,1-1.1,5.4c-1.8,7.607-3.545,15.227-5.458,22.8a85.708,85.708,0,0,1-2.992,9.358c-3.277,8.649-6.491,17.33-10.111,25.836-1.558,3.66-4.037,6.93-6.131,10.357-1.575,2.577-3.673,4.953-4.666,7.73-.88,2.461-2.174,2.877-4.347,2.865-2.839-.015-5.469-.4-7.653-2.456-.993-.934-2.221-1.616-3.246-2.523-4.049-3.582-5.311-8.469-6.41-13.5-2.285-10.469-3.142-21.088-3.668-31.751-.457-9.283-.931-18.566-1.285-27.854-.155-4.081-.03-8.174-.04-12.261a2.429,2.429,0,0,0-.366-1.4c-.936,4.462-1.767,8.948-2.832,13.379-1.817,7.561-3.674,15.116-5.722,22.617-1.206,4.419-2.764,8.745-4.247,13.085q-6.2,18.147-12.5,36.262a35.237,35.237,0,0,1-2.3,4.99,5.352,5.352,0,0,1-1.621,1.656c-1.592,1.151-3.137,1.3-4.713-.2-.7-.67-1.787-.926-2.56-1.543a18.238,18.238,0,0,1-2-2.215l1.393-.347-3.145-1.52c3.891-5.406,5.423-11.574,7.624-17.438,2.4-6.388,4.556-12.866,6.883-19.281a21.508,21.508,0,0,1,1.668-3.023,7.164,7.164,0,0,1-.057,2.056c-2.589,7.781-5.233,15.544-7.855,23.315-.148.44-.222.9-.33,1.359a85.514,85.514,0,0,0,4.157-8.829c.958-2.482,1.446-5.143,2.342-7.653,2.616-7.327,5.738-14.5,7.916-21.951,3.366-11.516,6.161-23.2,9.1-34.84,1.067-4.223,1.779-8.533,2.777-12.774,1.417-6.018,2.964-12.005,4.411-18.016a14.133,14.133,0,0,0,.16-2.48l-.54-.1a8.3,8.3,0,0,0-.781,1.467c-1.642,5.47-3.378,10.917-4.833,16.437-1.436,5.448-2.616,10.965-3.837,16.467-1.167,5.262-2.17,10.561-3.383,15.813-.806,3.489-2.049,6.882-2.749,10.388a113.173,113.173,0,0,1-5.154,17.769c-.234.619-.9,1.075-1.369,1.607a25.726,25.726,0,0,1,.6-3.249,252.242,252.242,0,0,0,7.293-27.6c.481-2.455,1.353-4.832,1.922-7.273,2.2-9.442,4.352-18.894,6.519-28.344a93.647,93.647,0,0,1,2.306-9.677,27.717,27.717,0,0,0,.867-5.329,25.382,25.382,0,0,1,1.73-4.988,5,5,0,0,1,.977-2.071,5.133,5.133,0,0,1,2.246-.658,10.372,10.372,0,0,1,1.07.072c2.752-.228,5.343,0,7.732,1.691a5.6,5.6,0,0,1,2.494,4.535c.648,12.669,1.33,25.338,1.815,38.015.3,7.846.236,15.706.4,23.558.154,7.262.311,14.526.63,21.782.246,5.608.585,11.222,1.178,16.8a86.9,86.9,0,0,0,2.982,15.344c1.757-2.73,3.491-4.993,4.763-7.491,2.684-5.275,5.12-10.677,7.685-16.013.16-.334.558-.554.846-.828Zm-33.048-79.912c-.265.732-.584,1.45-.786,2.2-1.221,4.545-2.587,9.059-3.585,13.653-3.077,14.149-5.771,28.388-10.143,42.222-1.737,5.5-3.611,10.95-5.5,16.4-2.135,6.145-4.416,12.24-6.508,18.4a46.141,46.141,0,0,0-1.19,5.662.947.947,0,0,0,.729-.587c2.127-5.165,4.36-10.291,6.34-15.512q3.142-8.286,5.876-16.725c1.744-5.374,3.482-10.771,4.8-16.26,3.154-13.163,6.052-26.387,9.071-39.582C821.808,242.05,822.755,238.848,821.967,235.419Zm6.594,4.434c1.674,28.048.267,56.2,3.7,84.161a4.721,4.721,0,0,0,.239-1.621c-.278-6.684-.6-13.366-.852-20.051-.16-4.294-.2-8.593-.328-12.888-.061-2.017-.177-4.033-.33-6.045-.149-1.954-.555-3.9-.535-5.851.044-4.332.389-8.662.414-12.994.023-3.977-.419-7.963-.279-11.931C830.745,248.23,829.727,244.05,828.561,239.853Zm-3.492,13.02-.5.079c-.031,2-.136,4-.079,5.995.267,9.18.474,18.363.9,27.536.727,15.735,1.019,31.517,4.358,47.012.256,1.19.544,2.374.839,3.556.291,1.161.609,2.316.915,3.473a2.092,2.092,0,0,0,.139-1.482,119.566,119.566,0,0,1-3.71-25.3c-.966-19.244-1.675-38.5-2.5-57.753C825.378,254.949,825.19,253.913,825.069,252.873Zm-9.192,30.861a14.375,14.375,0,0,1,.058-2.838c.818-3.988,1.751-7.953,2.618-11.931.19-.874.281-1.769.477-3.034a7.534,7.534,0,0,0-1.409,4.351,42.953,42.953,0,0,1-1.743,6.713c-.381,1.338-.91,2.639-1.225,3.991-.383,1.651-.508,3.366-.945,5-.271,1.015-1.217,1.9-1.316,2.9-.142,1.421.875,3.106-1.924,3.8,2.681.511.547,1.776,1.111,2.9a17.271,17.271,0,0,0,.785-1.776c.868-2.883,1.687-5.782,2.573-8.66A6.745,6.745,0,0,1,815.877,283.734Zm12.2,16.394.635-.1q-.5-16.581-1.006-33.16l-.707.024Q827.536,283.511,828.074,300.128Zm-22.2,13.263c.654-1.819,1.1-4.2,2.311-6.1,1.07-1.683,1.138-3.759,2.754-5.28-1.08,1.7-.886-.753-1.166-.491-.606.955-.89,1.991-1.47,2.2-1.509.541-1.225,1.708-1.4,2.781a5.616,5.616,0,0,1-.46,1.07,9.6,9.6,0,0,0-.976,2.65A14.641,14.641,0,0,0,805.873,313.391Zm30.221,31.555.572-.117q-2.033-9.789-4.064-19.578l-.378.077A151.421,151.421,0,0,0,836.094,344.946Zm-15.648-85.989.362.05c-.111.785.06,1.958-.385,2.28-1.265.916-1.2,2.106-.908,3.64l.175-1.022.257.212-.264,2.541.488.078,2.022-9.7-.96.06C820.882,257.9,820.664,258.426,820.446,258.957Zm.5-2.565.564.14c1.757-1.05,1.4-2.976,1.574-4.628.041-.39-.6-.851-1.095-1.506Zm5.682-10.115c-1.454,2.457-.008,4.76.443,7.084Zm-15,50.59-.471-.163-1.61,4.306.749.247Zm58.084-83.821-.587.247,1.869,4.271.452-.192Z" fill="#313133"/>
          <path id="Path_170" data-name="Path 170" d="M870.649,254.494c.04.644.134,1.291.11,1.933a40.743,40.743,0,0,1-.3,4.561c-.175,1.153-.695,2.251-.976,3.395a6.191,6.191,0,0,0,.006,1.5,22.026,22.026,0,0,1,0,2.478,18.492,18.492,0,0,1-.557,3.039c-.125.45-.585.8-.846,1.224a1.993,1.993,0,0,0-.3.824c-.119,1.344-.276,2.691-.277,4.037a5.925,5.925,0,0,1-1.508,4.534c-.2.2-.112.7-.166,1.054a6.86,6.86,0,0,1-.673,2.377c.849-10.471,4.247-20.507,5.032-30.986Z" fill="#313133"/>
          <path id="Path_171" data-name="Path 171" d="M855.072,315.376q.969-2.789,1.939-5.579l.7.249c-.669,1.767-1.33,3.538-2.031,5.292-.03.075-.435,0-.667-.007Z" fill="#313133"/>
          <path id="Path_172" data-name="Path 172" d="M1007.144,298.395l1.414-2.624.466,1.635-1.418,1.28Z" fill="#313133"/>
          <path id="Path_173" data-name="Path 173" d="M1034.929,276.518a14.384,14.384,0,0,1-2.585,3.691l-.464-.385,2.73-3.575Z" fill="#313133"/>
        </g>
      </g>
    </g>
  </g>
</svg>
